<?xml version="1.0" standalone="no"?><svg xmlns="http://www.w3.org/2000/svg" viewBox="0 0 1440 320"><path fill="#ffffff" fill-opacity="1" d="M0,160L24,181.3C48,203,96,245,144,245.3C192,245,240,203,288,181.3C336,160,384,160,432,176C480,192,528,224,576,202.7C624,181,672,107,720,112C768,117,816,203,864,218.7C912,235,960,181,1008,138.7C1056,96,1104,64,1152,90.7C1200,117,1248,203,1296,202.7C1344,203,1392,117,1416,74.7L1440,32L1440,320L1416,320C1392,320,1344,320,1296,320C1248,320,1200,320,1152,320C1104,320,1056,320,1008,320C960,320,912,320,864,320C816,320,768,320,720,320C672,320,624,320,576,320C528,320,480,320,432,320C384,320,336,320,288,320C240,320,192,320,144,320C96,320,48,320,24,320L0,320Z"></path></svg>